<svg xmlns="http://www.w3.org/2000/svg" xmlns:xlink="http://www.w3.org/1999/xlink" contentStyleType="text/css" height="235px" preserveAspectRatio="none" style="width:1619px;height:235px;background:#FFFFFF;" version="1.1" viewBox="0 0 1619 235" width="1619px" zoomAndPan="magnify"><defs/><g><!--class Arquivo--><g id="elem_Arquivo"><rect codeLine="1" fill="#F1F1F1" height="80.5938" id="Arquivo" rx="2.5" ry="2.5" style="stroke:#181818;stroke-width:0.5;" width="118.1006" x="245" y="7"/><ellipse cx="274.5204" cy="23" fill="#B4A7E5" rx="11" ry="11" style="stroke:#181818;stroke-width:1;"/><path d="M270.4423,18.7656 L270.4423,16.6094 L277.8329,16.6094 L277.8329,18.7656 L275.3642,18.7656 L275.3642,26.8438 L277.8329,26.8438 L277.8329,29 L270.4423,29 L270.4423,26.8438 L272.911,26.8438 L272.911,18.7656 L270.4423,18.7656 Z " fill="#000000"/><text fill="#000000" font-family="sans-serif" font-size="14" font-style="italic" lengthAdjust="spacing" textLength="53.833" x="291.7472" y="27.8467">Arquivo</text><line style="stroke:#181818;stroke-width:0.5;" x1="246" x2="362.1006" y1="39" y2="39"/><line style="stroke:#181818;stroke-width:0.5;" x1="246" x2="362.1006" y1="47" y2="47"/><ellipse cx="256" cy="60.6484" fill="#84BE84" rx="3" ry="3" style="stroke:#038048;stroke-width:1;"/><text fill="#000000" font-family="sans-serif" font-size="14" lengthAdjust="spacing" textLength="82.585" x="265" y="63.9951">abrir(): void</text><ellipse cx="256" cy="76.9453" fill="#84BE84" rx="3" ry="3" style="stroke:#038048;stroke-width:1;"/><text fill="#000000" font-family="sans-serif" font-size="14" lengthAdjust="spacing" textLength="92.1006" x="265" y="80.292">salvar(): void</text></g><!--class ArquivoPDF--><g id="elem_ArquivoPDF"><rect codeLine="6" fill="#F1F1F1" height="80.5938" id="ArquivoPDF" rx="2.5" ry="2.5" style="stroke:#181818;stroke-width:0.5;" width="118.1006" x="7" y="148"/><ellipse cx="24.2465" cy="164" fill="#ADD1B2" rx="11" ry="11" style="stroke:#181818;stroke-width:1;"/><path d="M27.2152,169.6406 Q26.6371,169.9375 25.9965,170.0781 Q25.3559,170.2344 24.6527,170.2344 Q22.1527,170.2344 20.8246,168.5938 Q19.5121,166.9375 19.5121,163.8125 Q19.5121,160.6875 20.8246,159.0313 Q22.1527,157.375 24.6527,157.375 Q25.3559,157.375 25.9965,157.5313 Q26.6527,157.6875 27.2152,157.9844 L27.2152,160.7031 Q26.5902,160.125 25.9965,159.8594 Q25.4027,159.5781 24.7777,159.5781 Q23.434,159.5781 22.7465,160.6563 Q22.059,161.7188 22.059,163.8125 Q22.059,165.9063 22.7465,166.9844 Q23.434,168.0469 24.7777,168.0469 Q25.4027,168.0469 25.9965,167.7813 Q26.5902,167.5 27.2152,166.9219 L27.2152,169.6406 Z " fill="#000000"/><text fill="#000000" font-family="sans-serif" font-size="14" lengthAdjust="spacing" textLength="81.1084" x="38.7457" y="168.8467">ArquivoPDF</text><line style="stroke:#181818;stroke-width:0.5;" x1="8" x2="124.1006" y1="180" y2="180"/><line style="stroke:#181818;stroke-width:0.5;" x1="8" x2="124.1006" y1="188" y2="188"/><ellipse cx="18" cy="201.6484" fill="#84BE84" rx="3" ry="3" style="stroke:#038048;stroke-width:1;"/><text fill="#000000" font-family="sans-serif" font-size="14" lengthAdjust="spacing" textLength="82.585" x="27" y="204.9951">abrir(): void</text><ellipse cx="18" cy="217.9453" fill="#84BE84" rx="3" ry="3" style="stroke:#038048;stroke-width:1;"/><text fill="#000000" font-family="sans-serif" font-size="14" lengthAdjust="spacing" textLength="92.1006" x="27" y="221.292">salvar(): void</text></g><!--class ArquivoDOCX--><g id="elem_ArquivoDOCX"><rect codeLine="11" fill="#F1F1F1" height="80.5938" id="ArquivoDOCX" rx="2.5" ry="2.5" style="stroke:#181818;stroke-width:0.5;" width="126.999" x="160.5" y="148"/><ellipse cx="175.5" cy="164" fill="#ADD1B2" rx="11" ry="11" style="stroke:#181818;stroke-width:1;"/><path d="M178.4688,169.6406 Q177.8906,169.9375 177.25,170.0781 Q176.6094,170.2344 175.9063,170.2344 Q173.4063,170.2344 172.0781,168.5938 Q170.7656,166.9375 170.7656,163.8125 Q170.7656,160.6875 172.0781,159.0313 Q173.4063,157.375 175.9063,157.375 Q176.6094,157.375 177.25,157.5313 Q177.9063,157.6875 178.4688,157.9844 L178.4688,160.7031 Q177.8438,160.125 177.25,159.8594 Q176.6563,159.5781 176.0313,159.5781 Q174.6875,159.5781 174,160.6563 Q173.3125,161.7188 173.3125,163.8125 Q173.3125,165.9063 174,166.9844 Q174.6875,168.0469 176.0313,168.0469 Q176.6563,168.0469 177.25,167.7813 Q177.8438,167.5 178.4688,166.9219 L178.4688,169.6406 Z " fill="#000000"/><text fill="#000000" font-family="sans-serif" font-size="14" lengthAdjust="spacing" textLength="94.999" x="189.5" y="168.8467">ArquivoDOCX</text><line style="stroke:#181818;stroke-width:0.5;" x1="161.5" x2="286.499" y1="180" y2="180"/><line style="stroke:#181818;stroke-width:0.5;" x1="161.5" x2="286.499" y1="188" y2="188"/><ellipse cx="171.5" cy="201.6484" fill="#84BE84" rx="3" ry="3" style="stroke:#038048;stroke-width:1;"/><text fill="#000000" font-family="sans-serif" font-size="14" lengthAdjust="spacing" textLength="82.585" x="180.5" y="204.9951">abrir(): void</text><ellipse cx="171.5" cy="217.9453" fill="#84BE84" rx="3" ry="3" style="stroke:#038048;stroke-width:1;"/><text fill="#000000" font-family="sans-serif" font-size="14" lengthAdjust="spacing" textLength="92.1006" x="180.5" y="221.292">salvar(): void</text></g><!--class ArquivoXLSX--><g id="elem_ArquivoXLSX"><rect codeLine="16" fill="#F1F1F1" height="80.5938" id="ArquivoXLSX" rx="2.5" ry="2.5" style="stroke:#181818;stroke-width:0.5;" width="121.7012" x="323" y="148"/><ellipse cx="338" cy="164" fill="#ADD1B2" rx="11" ry="11" style="stroke:#181818;stroke-width:1;"/><path d="M340.9688,169.6406 Q340.3906,169.9375 339.75,170.0781 Q339.1094,170.2344 338.4063,170.2344 Q335.9063,170.2344 334.5781,168.5938 Q333.2656,166.9375 333.2656,163.8125 Q333.2656,160.6875 334.5781,159.0313 Q335.9063,157.375 338.4063,157.375 Q339.1094,157.375 339.75,157.5313 Q340.4063,157.6875 340.9688,157.9844 L340.9688,160.7031 Q340.3438,160.125 339.75,159.8594 Q339.1563,159.5781 338.5313,159.5781 Q337.1875,159.5781 336.5,160.6563 Q335.8125,161.7188 335.8125,163.8125 Q335.8125,165.9063 336.5,166.9844 Q337.1875,168.0469 338.5313,168.0469 Q339.1563,168.0469 339.75,167.7813 Q340.3438,167.5 340.9688,166.9219 L340.9688,169.6406 Z " fill="#000000"/><text fill="#000000" font-family="sans-serif" font-size="14" lengthAdjust="spacing" textLength="89.7012" x="352" y="168.8467">ArquivoXLSX</text><line style="stroke:#181818;stroke-width:0.5;" x1="324" x2="443.7012" y1="180" y2="180"/><line style="stroke:#181818;stroke-width:0.5;" x1="324" x2="443.7012" y1="188" y2="188"/><ellipse cx="334" cy="201.6484" fill="#84BE84" rx="3" ry="3" style="stroke:#038048;stroke-width:1;"/><text fill="#000000" font-family="sans-serif" font-size="14" lengthAdjust="spacing" textLength="82.585" x="343" y="204.9951">abrir(): void</text><ellipse cx="334" cy="217.9453" fill="#84BE84" rx="3" ry="3" style="stroke:#038048;stroke-width:1;"/><text fill="#000000" font-family="sans-serif" font-size="14" lengthAdjust="spacing" textLength="92.1006" x="343" y="221.292">salvar(): void</text></g><!--class ArquivoTXT--><g id="elem_ArquivoTXT"><rect codeLine="21" fill="#F1F1F1" height="80.5938" id="ArquivoTXT" rx="2.5" ry="2.5" style="stroke:#181818;stroke-width:0.5;" width="118.1006" x="480" y="148"/><ellipse cx="497.508" cy="164" fill="#ADD1B2" rx="11" ry="11" style="stroke:#181818;stroke-width:1;"/><path d="M500.4767,169.6406 Q499.8986,169.9375 499.258,170.0781 Q498.6173,170.2344 497.9142,170.2344 Q495.4142,170.2344 494.0861,168.5938 Q492.7736,166.9375 492.7736,163.8125 Q492.7736,160.6875 494.0861,159.0313 Q495.4142,157.375 497.9142,157.375 Q498.6173,157.375 499.258,157.5313 Q499.9142,157.6875 500.4767,157.9844 L500.4767,160.7031 Q499.8517,160.125 499.258,159.8594 Q498.6642,159.5781 498.0392,159.5781 Q496.6955,159.5781 496.008,160.6563 Q495.3205,161.7188 495.3205,163.8125 Q495.3205,165.9063 496.008,166.9844 Q496.6955,168.0469 498.0392,168.0469 Q498.6642,168.0469 499.258,167.7813 Q499.8517,167.5 500.4767,166.9219 L500.4767,169.6406 Z " fill="#000000"/><text fill="#000000" font-family="sans-serif" font-size="14" lengthAdjust="spacing" textLength="80.5273" x="512.0653" y="168.8467">ArquivoTXT</text><line style="stroke:#181818;stroke-width:0.5;" x1="481" x2="597.1006" y1="180" y2="180"/><line style="stroke:#181818;stroke-width:0.5;" x1="481" x2="597.1006" y1="188" y2="188"/><ellipse cx="491" cy="201.6484" fill="#84BE84" rx="3" ry="3" style="stroke:#038048;stroke-width:1;"/><text fill="#000000" font-family="sans-serif" font-size="14" lengthAdjust="spacing" textLength="82.585" x="500" y="204.9951">abrir(): void</text><ellipse cx="491" cy="217.9453" fill="#84BE84" rx="3" ry="3" style="stroke:#038048;stroke-width:1;"/><text fill="#000000" font-family="sans-serif" font-size="14" lengthAdjust="spacing" textLength="92.1006" x="500" y="221.292">salvar(): void</text></g><!--class EditorArquivo--><g id="elem_EditorArquivo"><rect codeLine="31" fill="#F1F1F1" height="80.5938" id="EditorArquivo" rx="2.5" ry="2.5" style="stroke:#181818;stroke-width:0.5;" width="196.2148" x="1026" y="7"/><ellipse cx="1072.2246" cy="23" fill="#A9DCDF" rx="11" ry="11" style="stroke:#181818;stroke-width:1;"/><path d="M1072.334,18.3438 L1071.1777,23.4219 L1073.5059,23.4219 L1072.334,18.3438 Z M1070.8496,16.1094 L1073.834,16.1094 L1077.1934,28.5 L1074.7402,28.5 L1073.9746,25.4375 L1070.6934,25.4375 L1069.9434,28.5 L1067.5059,28.5 L1070.8496,16.1094 Z " fill="#000000"/><text fill="#000000" font-family="sans-serif" font-size="14" font-style="italic" lengthAdjust="spacing" textLength="95.2656" x="1092.7246" y="27.8467">EditorArquivo</text><line style="stroke:#181818;stroke-width:0.5;" x1="1027" x2="1221.2148" y1="39" y2="39"/><line style="stroke:#181818;stroke-width:0.5;" x1="1027" x2="1221.2148" y1="47" y2="47"/><polygon fill="#FFFF44" points="1037,55.6484,1041,59.6484,1037,63.6484,1033,59.6484" style="stroke:#B38D22;stroke-width:1;"/><text fill="#000000" font-family="sans-serif" font-size="14" lengthAdjust="spacing" textLength="159.4346" x="1046" y="63.9951">criarArquivo(): Arquivo</text><ellipse cx="1037" cy="76.9453" fill="#84BE84" rx="3" ry="3" style="stroke:#038048;stroke-width:1;"/><text fill="#000000" font-family="sans-serif" font-size="14" lengthAdjust="spacing" textLength="170.2148" x="1046" y="80.292">gerenciarArquivo(): void</text></g><!--class EditorPDF--><g id="elem_EditorPDF"><rect codeLine="36" fill="#F1F1F1" height="64.2969" id="EditorPDF" rx="2.5" ry="2.5" style="stroke:#181818;stroke-width:0.5;" width="212.71" x="633.5" y="156.5"/><ellipse cx="701.251" cy="172.5" fill="#ADD1B2" rx="11" ry="11" style="stroke:#181818;stroke-width:1;"/><path d="M704.2197,178.1406 Q703.6416,178.4375 703.001,178.5781 Q702.3604,178.7344 701.6572,178.7344 Q699.1572,178.7344 697.8291,177.0938 Q696.5166,175.4375 696.5166,172.3125 Q696.5166,169.1875 697.8291,167.5313 Q699.1572,165.875 701.6572,165.875 Q702.3604,165.875 703.001,166.0313 Q703.6572,166.1875 704.2197,166.4844 L704.2197,169.2031 Q703.5947,168.625 703.001,168.3594 Q702.4072,168.0781 701.7822,168.0781 Q700.4385,168.0781 699.751,169.1563 Q699.0635,170.2188 699.0635,172.3125 Q699.0635,174.4063 699.751,175.4844 Q700.4385,176.5469 701.7822,176.5469 Q702.4072,176.5469 703.001,176.2813 Q703.5947,176 704.2197,175.4219 L704.2197,178.1406 Z " fill="#000000"/><text fill="#000000" font-family="sans-serif" font-size="14" lengthAdjust="spacing" textLength="68.708" x="721.751" y="177.3467">EditorPDF</text><line style="stroke:#181818;stroke-width:0.5;" x1="634.5" x2="845.21" y1="188.5" y2="188.5"/><line style="stroke:#181818;stroke-width:0.5;" x1="634.5" x2="845.21" y1="196.5" y2="196.5"/><ellipse cx="644.5" cy="210.1484" fill="#84BE84" rx="3" ry="3" style="stroke:#038048;stroke-width:1;"/><text fill="#000000" font-family="sans-serif" font-size="14" lengthAdjust="spacing" textLength="186.71" x="653.5" y="213.4951">criarArquivo(): ArquivoPDF</text></g><!--class EditorDOCX--><g id="elem_EditorDOCX"><rect codeLine="40" fill="#F1F1F1" height="64.2969" id="EditorDOCX" rx="2.5" ry="2.5" style="stroke:#181818;stroke-width:0.5;" width="226.6006" x="881.5" y="156.5"/><ellipse cx="949.251" cy="172.5" fill="#ADD1B2" rx="11" ry="11" style="stroke:#181818;stroke-width:1;"/><path d="M952.2197,178.1406 Q951.6416,178.4375 951.001,178.5781 Q950.3604,178.7344 949.6572,178.7344 Q947.1572,178.7344 945.8291,177.0938 Q944.5166,175.4375 944.5166,172.3125 Q944.5166,169.1875 945.8291,167.5313 Q947.1572,165.875 949.6572,165.875 Q950.3604,165.875 951.001,166.0313 Q951.6572,166.1875 952.2197,166.4844 L952.2197,169.2031 Q951.5947,168.625 951.001,168.3594 Q950.4072,168.0781 949.7822,168.0781 Q948.4385,168.0781 947.751,169.1563 Q947.0635,170.2188 947.0635,172.3125 Q947.0635,174.4063 947.751,175.4844 Q948.4385,176.5469 949.7822,176.5469 Q950.4072,176.5469 951.001,176.2813 Q951.5947,176 952.2197,175.4219 L952.2197,178.1406 Z " fill="#000000"/><text fill="#000000" font-family="sans-serif" font-size="14" lengthAdjust="spacing" textLength="82.5986" x="969.751" y="177.3467">EditorDOCX</text><line style="stroke:#181818;stroke-width:0.5;" x1="882.5" x2="1107.1006" y1="188.5" y2="188.5"/><line style="stroke:#181818;stroke-width:0.5;" x1="882.5" x2="1107.1006" y1="196.5" y2="196.5"/><ellipse cx="892.5" cy="210.1484" fill="#84BE84" rx="3" ry="3" style="stroke:#038048;stroke-width:1;"/><text fill="#000000" font-family="sans-serif" font-size="14" lengthAdjust="spacing" textLength="200.6006" x="901.5" y="213.4951">criarArquivo(): ArquivoDOCX</text></g><!--class EditorXLSX--><g id="elem_EditorXLSX"><rect codeLine="44" fill="#F1F1F1" height="64.2969" id="EditorXLSX" rx="2.5" ry="2.5" style="stroke:#181818;stroke-width:0.5;" width="221.3027" x="1143.5" y="156.5"/><ellipse cx="1211.251" cy="172.5" fill="#ADD1B2" rx="11" ry="11" style="stroke:#181818;stroke-width:1;"/><path d="M1214.2197,178.1406 Q1213.6416,178.4375 1213.001,178.5781 Q1212.3604,178.7344 1211.6572,178.7344 Q1209.1572,178.7344 1207.8291,177.0938 Q1206.5166,175.4375 1206.5166,172.3125 Q1206.5166,169.1875 1207.8291,167.5313 Q1209.1572,165.875 1211.6572,165.875 Q1212.3604,165.875 1213.001,166.0313 Q1213.6572,166.1875 1214.2197,166.4844 L1214.2197,169.2031 Q1213.5947,168.625 1213.001,168.3594 Q1212.4072,168.0781 1211.7822,168.0781 Q1210.4385,168.0781 1209.751,169.1563 Q1209.0635,170.2188 1209.0635,172.3125 Q1209.0635,174.4063 1209.751,175.4844 Q1210.4385,176.5469 1211.7822,176.5469 Q1212.4072,176.5469 1213.001,176.2813 Q1213.5947,176 1214.2197,175.4219 L1214.2197,178.1406 Z " fill="#000000"/><text fill="#000000" font-family="sans-serif" font-size="14" lengthAdjust="spacing" textLength="77.3008" x="1231.751" y="177.3467">EditorXLSX</text><line style="stroke:#181818;stroke-width:0.5;" x1="1144.5" x2="1363.8027" y1="188.5" y2="188.5"/><line style="stroke:#181818;stroke-width:0.5;" x1="1144.5" x2="1363.8027" y1="196.5" y2="196.5"/><ellipse cx="1154.5" cy="210.1484" fill="#84BE84" rx="3" ry="3" style="stroke:#038048;stroke-width:1;"/><text fill="#000000" font-family="sans-serif" font-size="14" lengthAdjust="spacing" textLength="195.3027" x="1163.5" y="213.4951">criarArquivo(): ArquivoXLSX</text></g><!--class EditorTXT--><g id="elem_EditorTXT"><rect codeLine="48" fill="#F1F1F1" height="64.2969" id="EditorTXT" rx="2.5" ry="2.5" style="stroke:#181818;stroke-width:0.5;" width="212.1289" x="1400" y="156.5"/><ellipse cx="1467.751" cy="172.5" fill="#ADD1B2" rx="11" ry="11" style="stroke:#181818;stroke-width:1;"/><path d="M1470.7197,178.1406 Q1470.1416,178.4375 1469.501,178.5781 Q1468.8604,178.7344 1468.1572,178.7344 Q1465.6572,178.7344 1464.3291,177.0938 Q1463.0166,175.4375 1463.0166,172.3125 Q1463.0166,169.1875 1464.3291,167.5313 Q1465.6572,165.875 1468.1572,165.875 Q1468.8604,165.875 1469.501,166.0313 Q1470.1572,166.1875 1470.7197,166.4844 L1470.7197,169.2031 Q1470.0947,168.625 1469.501,168.3594 Q1468.9072,168.0781 1468.2822,168.0781 Q1466.9385,168.0781 1466.251,169.1563 Q1465.5635,170.2188 1465.5635,172.3125 Q1465.5635,174.4063 1466.251,175.4844 Q1466.9385,176.5469 1468.2822,176.5469 Q1468.9072,176.5469 1469.501,176.2813 Q1470.0947,176 1470.7197,175.4219 L1470.7197,178.1406 Z " fill="#000000"/><text fill="#000000" font-family="sans-serif" font-size="14" lengthAdjust="spacing" textLength="68.127" x="1488.251" y="177.3467">EditorTXT</text><line style="stroke:#181818;stroke-width:0.5;" x1="1401" x2="1611.1289" y1="188.5" y2="188.5"/><line style="stroke:#181818;stroke-width:0.5;" x1="1401" x2="1611.1289" y1="196.5" y2="196.5"/><ellipse cx="1411" cy="210.1484" fill="#84BE84" rx="3" ry="3" style="stroke:#038048;stroke-width:1;"/><text fill="#000000" font-family="sans-serif" font-size="14" lengthAdjust="spacing" textLength="186.1289" x="1420" y="213.4951">criarArquivo(): ArquivoTXT</text></g><!--reverse link Arquivo to ArquivoPDF--><g id="link_Arquivo_ArquivoPDF"><path codeLine="26" d="M229.3175,92.1192 C192.8375,113.4292 161.75,131.58 125.25,152.9 " fill="none" id="Arquivo-backto-ArquivoPDF" style="stroke:#181818;stroke-width:1;"/><polygon fill="none" points="244.86,83.04,226.2911,86.9384,232.344,97.3,244.86,83.04" style="stroke:#181818;stroke-width:1;"/></g><!--reverse link Arquivo to ArquivoDOCX--><g id="link_Arquivo_ArquivoDOCX"><path codeLine="27" d="M272.0954,103.9273 C261.3754,122.5373 257.64,129.05 246.93,147.66 " fill="none" id="Arquivo-backto-ArquivoDOCX" style="stroke:#181818;stroke-width:1;"/><polygon fill="none" points="281.08,88.33,266.8963,100.9325,277.2945,106.9222,281.08,88.33" style="stroke:#181818;stroke-width:1;"/></g><!--reverse link Arquivo to ArquivoXLSX--><g id="link_Arquivo_ArquivoXLSX"><path codeLine="28" d="M335.9046,103.9273 C346.6246,122.5373 350.36,129.05 361.07,147.66 " fill="none" id="Arquivo-backto-ArquivoXLSX" style="stroke:#181818;stroke-width:1;"/><polygon fill="none" points="326.92,88.33,330.7055,106.9222,341.1037,100.9325,326.92,88.33" style="stroke:#181818;stroke-width:1;"/></g><!--reverse link Arquivo to ArquivoTXT--><g id="link_Arquivo_ArquivoTXT"><path codeLine="29" d="M378.7925,92.7442 C414.4125,113.8142 444.1,131.37 479.72,152.44 " fill="none" id="Arquivo-backto-ArquivoTXT" style="stroke:#181818;stroke-width:1;"/><polygon fill="none" points="363.3,83.58,375.7378,97.9083,381.8472,87.58,363.3,83.58" style="stroke:#181818;stroke-width:1;"/></g><!--reverse link EditorArquivo to EditorPDF--><g id="link_EditorArquivo_EditorPDF"><path codeLine="52" d="M1008.6845,90.2459 C946.9045,112.6059 884.94,135.03 825.73,156.47 " fill="none" id="EditorArquivo-backto-EditorPDF" style="stroke:#181818;stroke-width:1;"/><polygon fill="none" points="1025.61,84.12,1006.6425,84.604,1010.7264,95.8877,1025.61,84.12" style="stroke:#181818;stroke-width:1;"/></g><!--reverse link EditorArquivo to EditorDOCX--><g id="link_EditorArquivo_EditorDOCX"><path codeLine="53" d="M1074.7861,101.5242 C1054.6861,123.1842 1042.44,136.39 1023.77,156.5 " fill="none" id="EditorArquivo-backto-EditorDOCX" style="stroke:#181818;stroke-width:1;"/><polygon fill="none" points="1087.03,88.33,1070.388,97.4429,1079.1841,105.6055,1087.03,88.33" style="stroke:#181818;stroke-width:1;"/></g><!--reverse link EditorArquivo to EditorXLSX--><g id="link_EditorArquivo_EditorXLSX"><path codeLine="54" d="M1173.546,101.4757 C1193.806,123.1357 1206.19,136.39 1225,156.5 " fill="none" id="EditorArquivo-backto-EditorXLSX" style="stroke:#181818;stroke-width:1;"/><polygon fill="none" points="1161.25,88.33,1169.1641,105.5743,1177.9279,97.377,1161.25,88.33" style="stroke:#181818;stroke-width:1;"/></g><!--reverse link EditorArquivo to EditorTXT--><g id="link_EditorArquivo_EditorTXT"><path codeLine="55" d="M1239.2853,90.454 C1300.6353,112.774 1361.88,135.06 1420.62,156.43 " fill="none" id="EditorArquivo-backto-EditorTXT" style="stroke:#181818;stroke-width:1;"/><polygon fill="none" points="1222.37,84.3,1237.234,96.0925,1241.3367,84.8156,1222.37,84.3" style="stroke:#181818;stroke-width:1;"/></g><!--SRC=[dP7B2i8m44Nt-Oe1Duhq1yIDM5q92dRHxJID4YWjJc8twh_RfFP91wIxCfUJteVEhQ8RIWKxUZnrMS1B0Amn8KtBrGRAGgVkO30hiRjyX90P6jDGb_0u3mpF-tWU6P-kCyaeZlu6crQsxo3eXPsykooJWhCwALHEXC34M49feJPvIBKjgB_60YHfR4xEtU_JMRuhKhaSoiFKzOFjGinRBjG8wRPX61zu17MpC90lOmIrYp2Cwwb2XjNu8jjmlEXTiggtmwhLZxy0]--></g></svg>